<svg width="64" height="64" viewBox="0 0 64 64" fill="none" xmlns="http://www.w3.org/2000/svg">
  <path d="M59.36 32.72C59.36 30.64 59.1733 28.64 58.8267 26.72H32V37.76H47.3333C46.6667 41.3333 44.64 44.36 41.6 46.4V53.6H50.88C56.3067 48.6133 59.36 41.2667 59.36 32.72Z" fill="#4285F4"/>
  <path d="M32 60.64C39.68 60.64 46.12 58.0933 50.88 53.6L41.6 46.4C39.0533 48.1067 35.7867 49.12 32 49.12C24.6 49.12 18.32 44.12 16.08 37.4H6.56V44.8267C11.2933 54.2267 20.9867 60.64 32 60.64Z" fill="#34A853"/>
  <path d="M16.08 37.4C14.9333 33.8267 14.9333 30.1733 16.08 26.6V19.1733H6.56C2.57333 27.12 2.57333 36.88 6.56 44.8267L16.08 37.4Z" fill="#FBBC04"/>
  <path d="M32 14.88C35.9733 14.8133 39.8133 16.3067 42.72 19.04L51.0667 10.6933C45.8667 5.81333 39.4267 3.17333 32 3.36C20.9867 3.36 11.2933 9.77333 6.56 19.1733L16.08 26.6C18.32 19.88 24.6 14.88 32 14.88Z" fill="#EA4335"/>
</svg>
